<?xml version="1.0" encoding="UTF-8" standalone="no"?>
<!DOCTYPE svg PUBLIC "-//W3C//DTD SVG 1.1//EN"
 "http://www.w3.org/Graphics/SVG/1.1/DTD/svg11.dtd">
<!-- Generated by graphviz version 2.43.0 (0)
 -->
<!-- Title: DAG Pages: 1 -->
<svg width="872pt" height="548pt"
 viewBox="0.00 0.00 871.50 548.00" xmlns="http://www.w3.org/2000/svg" xmlns:xlink="http://www.w3.org/1999/xlink">
<g id="graph0" class="graph" transform="scale(1 1) rotate(0) translate(4 544)">
<title>DAG</title>
<polygon fill="white" stroke="transparent" points="-4,4 -4,-544 867.5,-544 867.5,4 -4,4"/>
<!-- /train/fold0/train/A -->
<g id="node1" class="node">
<title>/train/fold0/train/A</title>
<polygon fill="#7570b3" stroke="black" points="737.5,-396 588.5,-396 588.5,-360 737.5,-360 737.5,-396"/>
<text text-anchor="middle" x="663" y="-374.3" font-family="Times,serif" font-size="14.00">/train/fold0/train/A</text>
</g>
<!-- /train/fold0/train/B -->
<g id="node3" class="node">
<title>/train/fold0/train/B</title>
<polygon fill="#7570b3" stroke="black" points="588,-324 438,-324 438,-288 588,-288 588,-324"/>
<text text-anchor="middle" x="513" y="-302.3" font-family="Times,serif" font-size="14.00">/train/fold0/train/B</text>
</g>
<!-- /train/fold0/train/A&#45;&gt;/train/fold0/train/B -->
<g id="edge2" class="edge">
<title>/train/fold0/train/A&#45;&gt;/train/fold0/train/B</title>
<path fill="none" stroke="black" d="M626.31,-359.88C605.98,-350.39 580.53,-338.51 558.9,-328.42"/>
<polygon fill="black" stroke="black" points="560.12,-325.13 549.57,-324.07 557.16,-331.47 560.12,-325.13"/>
</g>
<!-- /train/fold0/eval/A -->
<g id="node4" class="node">
<title>/train/fold0/eval/A</title>
<polygon fill="#7570b3" stroke="black" points="750,-324 606,-324 606,-288 750,-288 750,-324"/>
<text text-anchor="middle" x="678" y="-302.3" font-family="Times,serif" font-size="14.00">/train/fold0/eval/A</text>
</g>
<!-- /train/fold0/train/A&#45;&gt;/train/fold0/eval/A -->
<g id="edge4" class="edge">
<title>/train/fold0/train/A&#45;&gt;/train/fold0/eval/A</title>
<path fill="none" stroke="black" d="M666.71,-359.7C668.36,-351.98 670.35,-342.71 672.19,-334.11"/>
<polygon fill="black" stroke="black" points="675.66,-334.62 674.33,-324.1 668.82,-333.15 675.66,-334.62"/>
</g>
<!-- /eval/fold0/eval/A -->
<g id="node12" class="node">
<title>/eval/fold0/eval/A</title>
<polygon fill="#7570b3" stroke="black" points="863.5,-252 724.5,-252 724.5,-216 863.5,-216 863.5,-252"/>
<text text-anchor="middle" x="794" y="-230.3" font-family="Times,serif" font-size="14.00">/eval/fold0/eval/A</text>
</g>
<!-- /train/fold0/train/A&#45;&gt;/eval/fold0/eval/A -->
<g id="edge19" class="edge">
<title>/train/fold0/train/A&#45;&gt;/eval/fold0/eval/A</title>
<path fill="none" stroke="black" d="M708.56,-359.83C726.23,-351.3 745.43,-339.45 759,-324 774.44,-306.42 783.48,-281.23 788.5,-262.13"/>
<polygon fill="black" stroke="black" points="791.94,-262.78 790.88,-252.24 785.14,-261.14 791.94,-262.78"/>
</g>
<!-- /train/data_splitter -->
<g id="node2" class="node">
<title>/train/data_splitter</title>
<polygon fill="#7570b3" stroke="black" points="620.5,-468 469.5,-468 469.5,-432 620.5,-432 620.5,-468"/>
<text text-anchor="middle" x="545" y="-446.3" font-family="Times,serif" font-size="14.00">/train/data_splitter</text>
</g>
<!-- /train/data_splitter&#45;&gt;/train/fold0/train/A -->
<g id="edge1" class="edge">
<title>/train/data_splitter&#45;&gt;/train/fold0/train/A</title>
<path fill="none" stroke="black" d="M573.87,-431.88C589.29,-422.72 608.48,-411.34 625.1,-401.48"/>
<polygon fill="black" stroke="black" points="627.21,-404.3 634.02,-396.19 623.64,-398.28 627.21,-404.3"/>
</g>
<!-- /train/data_splitter&#45;&gt;/train/fold0/eval/A -->
<g id="edge3" class="edge">
<title>/train/data_splitter&#45;&gt;/train/fold0/eval/A</title>
<path fill="none" stroke="black" d="M548.08,-431.73C552.32,-412.31 561.62,-380.76 580,-360 591.42,-347.11 606.74,-336.78 621.88,-328.78"/>
<polygon fill="black" stroke="black" points="623.87,-331.7 631.25,-324.1 620.74,-325.44 623.87,-331.7"/>
</g>
<!-- /train/fold1/train/A -->
<g id="node6" class="node">
<title>/train/fold1/train/A</title>
<polygon fill="#7570b3" stroke="black" points="364.5,-396 215.5,-396 215.5,-360 364.5,-360 364.5,-396"/>
<text text-anchor="middle" x="290" y="-374.3" font-family="Times,serif" font-size="14.00">/train/fold1/train/A</text>
</g>
<!-- /train/data_splitter&#45;&gt;/train/fold1/train/A -->
<g id="edge7" class="edge">
<title>/train/data_splitter&#45;&gt;/train/fold1/train/A</title>
<path fill="none" stroke="black" d="M482.95,-431.97C446.54,-421.97 400.37,-409.3 362.32,-398.85"/>
<polygon fill="black" stroke="black" points="362.9,-395.38 352.33,-396.11 361.05,-402.13 362.9,-395.38"/>
</g>
<!-- /train/fold1/eval/A -->
<g id="node8" class="node">
<title>/train/fold1/eval/A</title>
<polygon fill="#7570b3" stroke="black" points="344,-324 200,-324 200,-288 344,-288 344,-324"/>
<text text-anchor="middle" x="272" y="-302.3" font-family="Times,serif" font-size="14.00">/train/fold1/eval/A</text>
</g>
<!-- /train/data_splitter&#45;&gt;/train/fold1/eval/A -->
<g id="edge10" class="edge">
<title>/train/data_splitter&#45;&gt;/train/fold1/eval/A</title>
<path fill="none" stroke="black" d="M512.22,-431.93C477.8,-414.01 422.1,-385.01 374,-360 354.31,-349.76 332.48,-338.42 314.08,-328.86"/>
<polygon fill="black" stroke="black" points="315.56,-325.68 305.08,-324.18 312.34,-331.9 315.56,-325.68"/>
</g>
<!-- /train/fold0/eval/B -->
<g id="node5" class="node">
<title>/train/fold0/eval/B</title>
<polygon fill="#7570b3" stroke="black" points="667.5,-252 522.5,-252 522.5,-216 667.5,-216 667.5,-252"/>
<text text-anchor="middle" x="595" y="-230.3" font-family="Times,serif" font-size="14.00">/train/fold0/eval/B</text>
</g>
<!-- /train/fold0/train/B&#45;&gt;/train/fold0/eval/B -->
<g id="edge5" class="edge">
<title>/train/fold0/train/B&#45;&gt;/train/fold0/eval/B</title>
<path fill="none" stroke="black" d="M533.27,-287.7C543.5,-278.97 556.06,-268.24 567.18,-258.75"/>
<polygon fill="black" stroke="black" points="569.63,-261.26 574.96,-252.1 565.09,-255.94 569.63,-261.26"/>
</g>
<!-- /train/summary -->
<g id="node11" class="node">
<title>/train/summary</title>
<polygon fill="#7570b3" stroke="black" points="285.5,-180 158.5,-180 158.5,-144 285.5,-144 285.5,-180"/>
<text text-anchor="middle" x="222" y="-158.3" font-family="Times,serif" font-size="14.00">/train/summary</text>
</g>
<!-- /train/fold0/train/B&#45;&gt;/train/summary -->
<g id="edge14" class="edge">
<title>/train/fold0/train/B&#45;&gt;/train/summary</title>
<path fill="none" stroke="black" d="M502.98,-287.76C490.26,-267.43 466.4,-234.14 437,-216 394.35,-189.69 339.4,-176.43 295.72,-169.75"/>
<polygon fill="black" stroke="black" points="296.13,-166.28 285.73,-168.31 295.13,-173.2 296.13,-166.28"/>
</g>
<!-- /eval/fold0/eval/B -->
<g id="node13" class="node">
<title>/eval/fold0/eval/B</title>
<polygon fill="#7570b3" stroke="black" points="715,-180 575,-180 575,-144 715,-144 715,-180"/>
<text text-anchor="middle" x="645" y="-158.3" font-family="Times,serif" font-size="14.00">/eval/fold0/eval/B</text>
</g>
<!-- /train/fold0/train/B&#45;&gt;/eval/fold0/eval/B -->
<g id="edge21" class="edge">
<title>/train/fold0/train/B&#45;&gt;/eval/fold0/eval/B</title>
<path fill="none" stroke="black" d="M588.34,-289.67C626.01,-280.32 665.91,-267.24 677,-252 690.91,-232.89 679.06,-207.13 666.02,-188.24"/>
<polygon fill="black" stroke="black" points="668.77,-186.08 660.03,-180.09 663.13,-190.22 668.77,-186.08"/>
</g>
<!-- /eval/summary -->
<g id="node16" class="node">
<title>/eval/summary</title>
<polygon fill="#7570b3" stroke="black" points="374,-108 252,-108 252,-72 374,-72 374,-108"/>
<text text-anchor="middle" x="313" y="-86.3" font-family="Times,serif" font-size="14.00">/eval/summary</text>
</g>
<!-- /train/fold0/train/B&#45;&gt;/eval/summary -->
<g id="edge30" class="edge">
<title>/train/fold0/train/B&#45;&gt;/eval/summary</title>
<path fill="none" stroke="black" d="M507.39,-287.99C500.58,-269.07 487.78,-238.25 470,-216 436.06,-173.53 385.16,-136.39 350.58,-113.86"/>
<polygon fill="black" stroke="black" points="352.04,-110.63 341.73,-108.18 348.26,-116.52 352.04,-110.63"/>
</g>
<!-- /train/fold0/eval/A&#45;&gt;/train/fold0/eval/B -->
<g id="edge6" class="edge">
<title>/train/fold0/eval/A&#45;&gt;/train/fold0/eval/B</title>
<path fill="none" stroke="black" d="M657.48,-287.7C647.13,-278.97 634.41,-268.24 623.16,-258.75"/>
<polygon fill="black" stroke="black" points="625.18,-255.88 615.28,-252.1 620.67,-261.23 625.18,-255.88"/>
</g>
<!-- /train/fold0/eval/A&#45;&gt;/eval/fold0/eval/A -->
<g id="edge20" class="edge">
<title>/train/fold0/eval/A&#45;&gt;/eval/fold0/eval/A</title>
<path fill="none" stroke="black" d="M706.38,-287.88C721.54,-278.72 740.41,-267.34 756.74,-257.48"/>
<polygon fill="black" stroke="black" points="758.76,-260.35 765.51,-252.19 755.14,-254.36 758.76,-260.35"/>
</g>
<!-- /train/fold0/eval/B&#45;&gt;/train/summary -->
<g id="edge16" class="edge">
<title>/train/fold0/eval/B&#45;&gt;/train/summary</title>
<path fill="none" stroke="black" d="M522.2,-219.34C456.76,-207.06 361.12,-189.11 295.48,-176.79"/>
<polygon fill="black" stroke="black" points="296.09,-173.34 285.61,-174.94 294.79,-180.22 296.09,-173.34"/>
</g>
<!-- /train/fold0/eval/B&#45;&gt;/eval/fold0/eval/B -->
<g id="edge23" class="edge">
<title>/train/fold0/eval/B&#45;&gt;/eval/fold0/eval/B</title>
<path fill="none" stroke="black" d="M607.36,-215.7C613.23,-207.47 620.37,-197.48 626.84,-188.42"/>
<polygon fill="black" stroke="black" points="629.82,-190.28 632.78,-180.1 624.12,-186.21 629.82,-190.28"/>
</g>
<!-- /train/fold1/train/B -->
<g id="node7" class="node">
<title>/train/fold1/train/B</title>
<polygon fill="#7570b3" stroke="black" points="182,-324 32,-324 32,-288 182,-288 182,-324"/>
<text text-anchor="middle" x="107" y="-302.3" font-family="Times,serif" font-size="14.00">/train/fold1/train/B</text>
</g>
<!-- /train/fold1/train/A&#45;&gt;/train/fold1/train/B -->
<g id="edge8" class="edge">
<title>/train/fold1/train/A&#45;&gt;/train/fold1/train/B</title>
<path fill="none" stroke="black" d="M245.23,-359.88C219.88,-350.18 187.99,-337.98 161.23,-327.74"/>
<polygon fill="black" stroke="black" points="162.21,-324.37 151.62,-324.07 159.71,-330.91 162.21,-324.37"/>
</g>
<!-- /train/fold1/train/A&#45;&gt;/train/fold1/eval/A -->
<g id="edge9" class="edge">
<title>/train/fold1/train/A&#45;&gt;/train/fold1/eval/A</title>
<path fill="none" stroke="black" d="M285.55,-359.7C283.55,-351.9 281.13,-342.51 278.9,-333.83"/>
<polygon fill="black" stroke="black" points="282.28,-332.92 276.4,-324.1 275.5,-334.66 282.28,-332.92"/>
</g>
<!-- /eval/fold1/eval/A -->
<g id="node14" class="node">
<title>/eval/fold1/eval/A</title>
<polygon fill="#7570b3" stroke="black" points="427.5,-252 288.5,-252 288.5,-216 427.5,-216 427.5,-252"/>
<text text-anchor="middle" x="358" y="-230.3" font-family="Times,serif" font-size="14.00">/eval/fold1/eval/A</text>
</g>
<!-- /train/fold1/train/A&#45;&gt;/eval/fold1/eval/A -->
<g id="edge24" class="edge">
<title>/train/fold1/train/A&#45;&gt;/eval/fold1/eval/A</title>
<path fill="none" stroke="black" d="M319.59,-359.86C332.19,-350.89 345.65,-338.7 353,-324 362.55,-304.91 363.26,-280.55 361.88,-262.15"/>
<polygon fill="black" stroke="black" points="365.36,-261.69 360.88,-252.09 358.39,-262.38 365.36,-261.69"/>
</g>
<!-- /train/fold1/eval/B -->
<g id="node9" class="node">
<title>/train/fold1/eval/B</title>
<polygon fill="#7570b3" stroke="black" points="193.5,-252 48.5,-252 48.5,-216 193.5,-216 193.5,-252"/>
<text text-anchor="middle" x="121" y="-230.3" font-family="Times,serif" font-size="14.00">/train/fold1/eval/B</text>
</g>
<!-- /train/fold1/train/B&#45;&gt;/train/fold1/eval/B -->
<g id="edge11" class="edge">
<title>/train/fold1/train/B&#45;&gt;/train/fold1/eval/B</title>
<path fill="none" stroke="black" d="M110.46,-287.7C112,-279.98 113.86,-270.71 115.58,-262.11"/>
<polygon fill="black" stroke="black" points="119.05,-262.6 117.58,-252.1 112.19,-261.22 119.05,-262.6"/>
</g>
<!-- /train/fold1/train/B&#45;&gt;/train/summary -->
<g id="edge15" class="edge">
<title>/train/fold1/train/B&#45;&gt;/train/summary</title>
<path fill="none" stroke="black" d="M155.27,-287.78C172.36,-279.43 190.25,-267.74 202,-252 215.29,-234.2 220.02,-209.19 221.58,-190.22"/>
<polygon fill="black" stroke="black" points="225.08,-190.29 222.17,-180.11 218.1,-189.89 225.08,-190.29"/>
</g>
<!-- /eval/fold1/eval/B -->
<g id="node15" class="node">
<title>/eval/fold1/eval/B</title>
<polygon fill="#7570b3" stroke="black" points="140,-180 0,-180 0,-144 140,-144 140,-180"/>
<text text-anchor="middle" x="70" y="-158.3" font-family="Times,serif" font-size="14.00">/eval/fold1/eval/B</text>
</g>
<!-- /train/fold1/train/B&#45;&gt;/eval/fold1/eval/B -->
<g id="edge27" class="edge">
<title>/train/fold1/train/B&#45;&gt;/eval/fold1/eval/B</title>
<path fill="none" stroke="black" d="M73.64,-287.86C60.29,-279.09 46.36,-267.06 39,-252 28.94,-231.41 39.17,-206.7 50.5,-188.55"/>
<polygon fill="black" stroke="black" points="53.42,-190.48 56.06,-180.22 47.6,-186.59 53.42,-190.48"/>
</g>
<!-- /train/fold1/train/B&#45;&gt;/eval/summary -->
<g id="edge32" class="edge">
<title>/train/fold1/train/B&#45;&gt;/eval/summary</title>
<path fill="none" stroke="black" d="M156.2,-287.93C201.53,-269.25 266,-234.5 295,-180 305.21,-160.8 309.65,-136.46 311.56,-118.08"/>
<polygon fill="black" stroke="black" points="315.06,-118.3 312.43,-108.04 308.08,-117.7 315.06,-118.3"/>
</g>
<!-- /train/fold1/eval/A&#45;&gt;/train/fold1/eval/B -->
<g id="edge12" class="edge">
<title>/train/fold1/eval/A&#45;&gt;/train/fold1/eval/B</title>
<path fill="none" stroke="black" d="M235.06,-287.88C214.51,-278.35 188.75,-266.41 166.91,-256.28"/>
<polygon fill="black" stroke="black" points="168.36,-253.1 157.82,-252.07 165.42,-259.45 168.36,-253.1"/>
</g>
<!-- /train/fold1/eval/A&#45;&gt;/eval/fold1/eval/A -->
<g id="edge26" class="edge">
<title>/train/fold1/eval/A&#45;&gt;/eval/fold1/eval/A</title>
<path fill="none" stroke="black" d="M293.26,-287.7C304.09,-278.88 317.42,-268.03 329.16,-258.47"/>
<polygon fill="black" stroke="black" points="331.44,-261.13 336.99,-252.1 327.02,-255.7 331.44,-261.13"/>
</g>
<!-- /train/fold1/eval/B&#45;&gt;/train/summary -->
<g id="edge17" class="edge">
<title>/train/fold1/eval/B&#45;&gt;/train/summary</title>
<path fill="none" stroke="black" d="M145.71,-215.88C158.67,-206.89 174.73,-195.76 188.77,-186.03"/>
<polygon fill="black" stroke="black" points="190.97,-188.76 197.2,-180.19 186.98,-183.01 190.97,-188.76"/>
</g>
<!-- /train/fold1/eval/B&#45;&gt;/eval/fold1/eval/B -->
<g id="edge29" class="edge">
<title>/train/fold1/eval/B&#45;&gt;/eval/fold1/eval/B</title>
<path fill="none" stroke="black" d="M108.39,-215.7C102.4,-207.47 95.12,-197.48 88.52,-188.42"/>
<polygon fill="black" stroke="black" points="91.18,-186.13 82.46,-180.1 85.52,-190.25 91.18,-186.13"/>
</g>
<!-- /data -->
<g id="node10" class="node">
<title>/data</title>
<ellipse fill="none" stroke="black" cx="545" cy="-522" rx="34.39" ry="18"/>
<text text-anchor="middle" x="545" y="-518.3" font-family="Times,serif" font-size="14.00">/data</text>
</g>
<!-- /data&#45;&gt;/train/data_splitter -->
<g id="edge13" class="edge">
<title>/data&#45;&gt;/train/data_splitter</title>
<path fill="none" stroke="black" d="M545,-503.7C545,-495.98 545,-486.71 545,-478.11"/>
<polygon fill="black" stroke="black" points="548.5,-478.1 545,-468.1 541.5,-478.1 548.5,-478.1"/>
</g>
<!-- /data&#45;&gt;/eval/fold0/eval/A -->
<g id="edge18" class="edge">
<title>/data&#45;&gt;/eval/fold0/eval/A</title>
<path fill="none" stroke="black" d="M571.46,-510.34C613.41,-492.31 695.69,-452.18 747,-396 781.17,-358.59 790.6,-297.66 793.14,-262.46"/>
<polygon fill="black" stroke="black" points="796.64,-262.6 793.73,-252.42 789.65,-262.2 796.64,-262.6"/>
</g>
<!-- /data&#45;&gt;/eval/fold1/eval/A -->
<g id="edge25" class="edge">
<title>/data&#45;&gt;/eval/fold1/eval/A</title>
<path fill="none" stroke="black" d="M519.38,-509.86C501.09,-500.82 477,-486.54 461,-468 406.58,-404.95 376.48,-308.57 364.38,-262.02"/>
<polygon fill="black" stroke="black" points="367.71,-260.93 361.87,-252.09 360.92,-262.64 367.71,-260.93"/>
</g>
<!-- /train/summary&#45;&gt;/eval/summary -->
<g id="edge34" class="edge">
<title>/train/summary&#45;&gt;/eval/summary</title>
<path fill="none" stroke="black" d="M244.49,-143.7C255.96,-134.88 270.06,-124.03 282.48,-114.47"/>
<polygon fill="black" stroke="black" points="284.97,-116.98 290.76,-108.1 280.7,-111.43 284.97,-116.98"/>
</g>
<!-- /tail -->
<g id="node17" class="node">
<title>/tail</title>
<polygon fill="#7570b3" stroke="black" points="295,-36 241,-36 241,0 295,0 295,-36"/>
<text text-anchor="middle" x="268" y="-14.3" font-family="Times,serif" font-size="14.00">/tail</text>
</g>
<!-- /train/summary&#45;&gt;/tail -->
<g id="edge35" class="edge">
<title>/train/summary&#45;&gt;/tail</title>
<path fill="none" stroke="black" d="M224.92,-143.97C228.28,-125.83 234.46,-96.43 243,-72 246.09,-63.16 250.19,-53.83 254.17,-45.51"/>
<polygon fill="black" stroke="black" points="257.43,-46.8 258.72,-36.28 251.16,-43.7 257.43,-46.8"/>
</g>
<!-- /eval/fold0/eval/A&#45;&gt;/eval/fold0/eval/B -->
<g id="edge22" class="edge">
<title>/eval/fold0/eval/A&#45;&gt;/eval/fold0/eval/B</title>
<path fill="none" stroke="black" d="M757.55,-215.88C737.36,-206.39 712.08,-194.51 690.59,-184.42"/>
<polygon fill="black" stroke="black" points="691.87,-181.15 681.33,-180.07 688.89,-187.49 691.87,-181.15"/>
</g>
<!-- /eval/fold0/eval/B&#45;&gt;/eval/summary -->
<g id="edge31" class="edge">
<title>/eval/fold0/eval/B&#45;&gt;/eval/summary</title>
<path fill="none" stroke="black" d="M575,-146.24C518.91,-134.42 440.56,-117.89 384.17,-106"/>
<polygon fill="black" stroke="black" points="384.76,-102.55 374.26,-103.92 383.32,-109.4 384.76,-102.55"/>
</g>
<!-- /eval/fold1/eval/A&#45;&gt;/eval/fold1/eval/B -->
<g id="edge28" class="edge">
<title>/eval/fold1/eval/A&#45;&gt;/eval/fold1/eval/B</title>
<path fill="none" stroke="black" d="M288.28,-216.05C246.58,-205.92 193.44,-193 150.03,-182.45"/>
<polygon fill="black" stroke="black" points="150.62,-178.99 140.07,-180.03 148.96,-185.79 150.62,-178.99"/>
</g>
<!-- /eval/fold1/eval/B&#45;&gt;/eval/summary -->
<g id="edge33" class="edge">
<title>/eval/fold1/eval/B&#45;&gt;/eval/summary</title>
<path fill="none" stroke="black" d="M129.13,-143.97C163.68,-134.01 207.45,-121.41 243.62,-110.99"/>
<polygon fill="black" stroke="black" points="244.96,-114.24 253.6,-108.11 243.02,-107.52 244.96,-114.24"/>
</g>
<!-- /eval/summary&#45;&gt;/tail -->
<g id="edge36" class="edge">
<title>/eval/summary&#45;&gt;/tail</title>
<path fill="none" stroke="black" d="M301.88,-71.7C296.64,-63.56 290.3,-53.69 284.52,-44.7"/>
<polygon fill="black" stroke="black" points="287.35,-42.62 279,-36.1 281.46,-46.41 287.35,-42.62"/>
</g>
</g>
</svg>
