<?xml version="1.0" encoding="UTF-8" standalone="no"?>
<!DOCTYPE svg PUBLIC "-//W3C//DTD SVG 1.1//EN"
 "http://www.w3.org/Graphics/SVG/1.1/DTD/svg11.dtd">
<!-- Generated by graphviz version 2.43.0 (0)
 -->
<!-- Title: DAG Pages: 1 -->
<svg width="162pt" height="332pt"
 viewBox="0.00 0.00 162.00 332.00" xmlns="http://www.w3.org/2000/svg" xmlns:xlink="http://www.w3.org/1999/xlink">
<g id="graph0" class="graph" transform="scale(1 1) rotate(0) translate(4 328)">
<title>DAG</title>
<polygon fill="white" stroke="transparent" points="-4,4 -4,-328 158,-328 158,4 -4,4"/>
<!-- /train/A -->
<g id="node1" class="node">
<title>/train/A</title>
<polygon fill="#7570b3" stroke="black" points="93.5,-252 23.5,-252 23.5,-216 93.5,-216 93.5,-252"/>
<text text-anchor="middle" x="58.5" y="-230.3" font-family="Times,serif" font-size="14.00">/train/A</text>
</g>
<!-- /train/B -->
<g id="node3" class="node">
<title>/train/B</title>
<polygon fill="#7570b3" stroke="black" points="71,-180 0,-180 0,-144 71,-144 71,-180"/>
<text text-anchor="middle" x="35.5" y="-158.3" font-family="Times,serif" font-size="14.00">/train/B</text>
</g>
<!-- /train/A&#45;&gt;/train/B -->
<g id="edge2" class="edge">
<title>/train/A&#45;&gt;/train/B</title>
<path fill="none" stroke="black" d="M52.81,-215.7C50.25,-207.9 47.17,-198.51 44.32,-189.83"/>
<polygon fill="black" stroke="black" points="47.57,-188.51 41.12,-180.1 40.92,-190.7 47.57,-188.51"/>
</g>
<!-- /eval/A -->
<g id="node4" class="node">
<title>/eval/A</title>
<polygon fill="#7570b3" stroke="black" points="154,-180 89,-180 89,-144 154,-144 154,-180"/>
<text text-anchor="middle" x="121.5" y="-158.3" font-family="Times,serif" font-size="14.00">/eval/A</text>
</g>
<!-- /train/A&#45;&gt;/eval/A -->
<g id="edge4" class="edge">
<title>/train/A&#45;&gt;/eval/A</title>
<path fill="none" stroke="black" d="M74.07,-215.7C81.7,-207.22 91.02,-196.86 99.38,-187.58"/>
<polygon fill="black" stroke="black" points="102.02,-189.88 106.11,-180.1 96.81,-185.2 102.02,-189.88"/>
</g>
<!-- /data -->
<g id="node2" class="node">
<title>/data</title>
<ellipse fill="none" stroke="black" cx="89.5" cy="-306" rx="34.39" ry="18"/>
<text text-anchor="middle" x="89.5" y="-302.3" font-family="Times,serif" font-size="14.00">/data</text>
</g>
<!-- /data&#45;&gt;/train/A -->
<g id="edge1" class="edge">
<title>/data&#45;&gt;/train/A</title>
<path fill="none" stroke="black" d="M82.15,-288.41C78.63,-280.45 74.32,-270.72 70.35,-261.76"/>
<polygon fill="black" stroke="black" points="73.48,-260.17 66.23,-252.45 67.08,-263.01 73.48,-260.17"/>
</g>
<!-- /data&#45;&gt;/eval/A -->
<g id="edge3" class="edge">
<title>/data&#45;&gt;/eval/A</title>
<path fill="none" stroke="black" d="M93.85,-287.85C96.44,-277.48 99.75,-264 102.5,-252 107.24,-231.34 112.23,-207.89 115.9,-190.25"/>
<polygon fill="black" stroke="black" points="119.41,-190.6 118.01,-180.1 112.55,-189.18 119.41,-190.6"/>
</g>
<!-- /eval/B -->
<g id="node5" class="node">
<title>/eval/B</title>
<polygon fill="#7570b3" stroke="black" points="129,-108 64,-108 64,-72 129,-72 129,-108"/>
<text text-anchor="middle" x="96.5" y="-86.3" font-family="Times,serif" font-size="14.00">/eval/B</text>
</g>
<!-- /train/B&#45;&gt;/eval/B -->
<g id="edge6" class="edge">
<title>/train/B&#45;&gt;/eval/B</title>
<path fill="none" stroke="black" d="M50.58,-143.7C57.89,-135.3 66.81,-125.07 74.84,-115.86"/>
<polygon fill="black" stroke="black" points="77.66,-117.94 81.59,-108.1 72.39,-113.34 77.66,-117.94"/>
</g>
<!-- /tail -->
<g id="node6" class="node">
<title>/tail</title>
<polygon fill="#7570b3" stroke="black" points="92.5,-36 38.5,-36 38.5,0 92.5,0 92.5,-36"/>
<text text-anchor="middle" x="65.5" y="-14.3" font-family="Times,serif" font-size="14.00">/tail</text>
</g>
<!-- /train/B&#45;&gt;/tail -->
<g id="edge7" class="edge">
<title>/train/B&#45;&gt;/tail</title>
<path fill="none" stroke="black" d="M39.12,-143.87C44.25,-119.56 53.71,-74.82 59.79,-46.01"/>
<polygon fill="black" stroke="black" points="63.23,-46.7 61.87,-36.19 56.38,-45.25 63.23,-46.7"/>
</g>
<!-- /eval/A&#45;&gt;/eval/B -->
<g id="edge5" class="edge">
<title>/eval/A&#45;&gt;/eval/B</title>
<path fill="none" stroke="black" d="M115.32,-143.7C112.5,-135.81 109.11,-126.3 105.98,-117.55"/>
<polygon fill="black" stroke="black" points="109.27,-116.34 102.61,-108.1 102.68,-118.7 109.27,-116.34"/>
</g>
<!-- /eval/B&#45;&gt;/tail -->
<g id="edge8" class="edge">
<title>/eval/B&#45;&gt;/tail</title>
<path fill="none" stroke="black" d="M88.84,-71.7C85.31,-63.73 81.04,-54.1 77.13,-45.26"/>
<polygon fill="black" stroke="black" points="80.32,-43.83 73.07,-36.1 73.92,-46.67 80.32,-43.83"/>
</g>
</g>
</svg>
