<?xml version="1.0" encoding="UTF-8" standalone="no"?>
<!DOCTYPE svg PUBLIC "-//W3C//DTD SVG 1.1//EN"
 "http://www.w3.org/Graphics/SVG/1.1/DTD/svg11.dtd">
<!-- Generated by graphviz version 2.43.0 (0)
 -->
<!-- Title: DAG Pages: 1 -->
<svg width="77pt" height="188pt"
 viewBox="0.00 0.00 76.89 188.00" xmlns="http://www.w3.org/2000/svg" xmlns:xlink="http://www.w3.org/1999/xlink">
<g id="graph0" class="graph" transform="scale(1 1) rotate(0) translate(4 184)">
<title>DAG</title>
<polygon fill="white" stroke="transparent" points="-4,4 -4,-184 72.89,-184 72.89,4 -4,4"/>
<!-- /A -->
<g id="node1" class="node">
<title>/A</title>
<polygon fill="#7570b3" stroke="black" points="61.45,-108 7.45,-108 7.45,-72 61.45,-72 61.45,-108"/>
<text text-anchor="middle" x="34.45" y="-86.3" font-family="Times,serif" font-size="14.00">/A</text>
</g>
<!-- /B -->
<g id="node3" class="node">
<title>/B</title>
<polygon fill="#7570b3" stroke="black" points="61.45,-36 7.45,-36 7.45,0 61.45,0 61.45,-36"/>
<text text-anchor="middle" x="34.45" y="-14.3" font-family="Times,serif" font-size="14.00">/B</text>
</g>
<!-- /A&#45;&gt;/B -->
<g id="edge2" class="edge">
<title>/A&#45;&gt;/B</title>
<path fill="none" stroke="black" d="M34.45,-71.7C34.45,-63.98 34.45,-54.71 34.45,-46.11"/>
<polygon fill="black" stroke="black" points="37.95,-46.1 34.45,-36.1 30.95,-46.1 37.95,-46.1"/>
</g>
<!-- /data -->
<g id="node2" class="node">
<title>/data</title>
<ellipse fill="none" stroke="black" cx="34.45" cy="-162" rx="34.39" ry="18"/>
<text text-anchor="middle" x="34.45" y="-158.3" font-family="Times,serif" font-size="14.00">/data</text>
</g>
<!-- /data&#45;&gt;/A -->
<g id="edge1" class="edge">
<title>/data&#45;&gt;/A</title>
<path fill="none" stroke="black" d="M34.45,-143.7C34.45,-135.98 34.45,-126.71 34.45,-118.11"/>
<polygon fill="black" stroke="black" points="37.95,-118.1 34.45,-108.1 30.95,-118.1 37.95,-118.1"/>
</g>
</g>
</svg>
